<svg width="83" height="71" viewBox="0 0 83 71" fill="none" xmlns="http://www.w3.org/2000/svg">
<path d="M1.22963 1.23499C0.153704 2.23826 0 6.2513 0 33.1078C0 56.4143 0.230556 64.0546 0.922222 65.0578C1.84444 66.2926 3.84259 66.3698 23.0556 66.2154C43.575 65.9839 44.1898 65.9067 44.1898 64.4404C44.1898 62.9741 43.575 62.897 24.0546 62.6654L3.84259 62.5111V33.185V3.85891H32.662H61.4815V26.548C61.4815 44.3752 61.712 49.3915 62.4806 50.0861C65.0167 52.1698 65.3241 49.5459 65.3241 25.3133C65.3241 2.62412 65.2472 1.54369 63.8639 0.77195C62.8648 0.308907 51.5676 0.000213623 32.3546 0.000213623C6.14815 0.000213623 2.2287 0.154556 1.22963 1.23499Z" fill="#3B82F6"/>
<path d="M14.0639 15.1259C13.8333 15.8204 14.0639 16.6694 14.6787 17.0552C16.2157 17.9813 48.9546 17.9041 50.7222 16.978C51.5676 16.515 52.0287 15.6661 51.7982 15.0487C51.4139 14.0454 48.4935 13.8911 32.9694 13.8911C16.7537 13.8911 14.525 14.0454 14.0639 15.1259Z" fill="#3B82F6"/>
<path d="M14.0639 24.3871C13.8333 25.0817 14.0639 25.9306 14.6787 26.3165C16.2157 27.2425 48.9546 27.1654 50.7222 26.2393C51.5676 25.7762 52.0287 24.9273 51.7982 24.3099C51.4139 23.3067 48.4935 23.1523 32.9694 23.1523C16.7537 23.1523 14.525 23.3067 14.0639 24.3871Z" fill="#3B82F6"/>
<path d="M14.0639 33.6481C13.8333 34.3426 14.0639 35.1915 14.6787 35.5774C15.2935 35.9633 23.5167 36.272 33.1232 36.272C50.5685 36.272 52.6435 35.9633 51.7213 33.4937C51.4139 32.6448 47.8787 32.4133 32.9694 32.4133C16.7537 32.4133 14.525 32.5676 14.0639 33.6481Z" fill="#3B82F6"/>
<path d="M14.0639 42.9088C13.8333 43.6034 14.0639 44.4523 14.6787 44.8381C15.2935 45.224 23.5167 45.5327 33.1232 45.5327C50.5685 45.5327 52.6435 45.224 51.7213 42.7545C51.4139 41.9055 47.8787 41.674 32.9694 41.674C16.7537 41.674 14.525 41.8284 14.0639 42.9088Z" fill="#3B82F6"/>
<path d="M68.1676 52.9413C61.4047 57.4174 55.8713 60.9674 55.7945 60.8131C55.7176 60.6587 54.3343 58.9609 52.7204 56.8772C49.8 53.1728 47.6482 52.1696 47.6482 54.562C47.6482 57.3402 51.7213 68.3761 53.1815 69.6881C54.7186 70.9228 54.8723 70.9228 56.7936 69.7652C57.8695 68.9935 64.0176 63.7457 70.4732 57.9576C81.1556 48.4652 84.1528 44.7609 81.2325 44.7609C80.7713 44.7609 74.8537 48.4652 68.1676 52.9413Z" fill="#3B82F6"/>
<path d="M14.1408 51.3209C13.2186 53.6361 14.6787 54.022 24.2852 54.022C32.3547 54.022 33.9686 53.7905 34.3528 52.7872C35.1213 50.7035 33.0463 50.1633 23.5936 50.1633C16.3695 50.1633 14.4482 50.3948 14.1408 51.3209Z" fill="#3B82F6"/>
</svg>
